<svg width="569" height="254" viewBox="0 0 569 254" fill="none" xmlns="http://www.w3.org/2000/svg">
<rect x="0.287109" y="0.711914" width="568.449" height="252.768" fill="#DEF7E5"/>
<path d="M348.878 70.1731C348.878 70.1731 326.774 68.0748 323.731 78.7421C320.688 89.4095 331.347 98.3714 334.599 100.085C336.128 105.85 335.657 111.962 333.262 117.424C329.257 126.762 324.459 140.489 303.559 159.542C282.659 178.594 268.304 186.402 264.877 207.745C261.449 229.088 271.732 237.473 299.93 237.666C328.129 237.858 374.033 204.51 385.487 164.875C396.94 125.24 393.679 108.863 393.111 94.5593C392.542 80.2553 384.325 66.9211 369.837 65.4079C355.349 63.8948 348.878 70.1731 348.878 70.1731Z" fill="#263238" stroke="#263238" stroke-linecap="round" stroke-linejoin="round"/>
<path d="M354.003 86.7427C354.003 86.7427 330.87 79.6283 329.441 85.6726C328.011 91.7169 344.037 94.2165 344.037 91.0146C344.037 87.8128 335.494 87.8211 335.494 87.8211" stroke="white" stroke-miterlimit="10"/>
<path d="M376.065 69.3037C376.065 69.3037 357.204 68.5931 356.134 75.3564C355.064 82.1196 382.117 103.112 392.793 105.962" stroke="white" stroke-miterlimit="10"/>
<path d="M369.661 69.3037C369.661 69.3037 363.257 73.2162 365.748 77.8476C368.24 82.4791 381.758 88.5234 388.521 88.5234" stroke="white" stroke-miterlimit="10"/>
<path d="M340.735 130.758C348.406 130.31 356.096 130.31 363.767 130.758C376.031 131.51 380.286 136.267 380.286 136.267C380.286 136.267 361.76 211.616 360.005 225.636C358.249 239.655 358.007 250.423 358.007 250.423H311.918C311.918 250.423 323.179 202.353 327.685 179.079C332.191 155.805 340.735 130.758 340.735 130.758Z" fill="#92E3A9" stroke="#263238" stroke-linecap="round" stroke-linejoin="round"/>
<path d="M346.596 132.865C346.596 132.865 343.16 147.344 343.16 155.913C343.16 164.482 349.071 175.543 358.785 171.923C368.499 168.303 370.029 158.045 370.029 151.357C370.029 144.669 369.653 135.548 369.653 135.548C369.653 135.548 364.888 139.361 357.456 136.878C350.024 134.395 346.596 132.865 346.596 132.865Z" fill="white"/>
<path d="M369.995 147.344C369.895 141.492 369.653 135.532 369.653 135.532C369.653 135.532 364.887 139.344 357.455 136.861C350.023 134.378 346.587 132.865 346.587 132.865C346.587 132.865 345.007 139.553 343.987 146.492C346.144 149.994 350.048 152.979 357.179 152.578C362.914 152.252 367.011 150.22 369.995 147.344Z" fill="#92E3A9"/>
<path opacity="0.5" d="M369.995 147.344C369.895 141.492 369.653 135.532 369.653 135.532C369.653 135.532 364.887 139.344 357.455 136.861C350.023 134.378 346.587 132.865 346.587 132.865C346.587 132.865 345.007 139.553 343.987 146.492C346.144 149.994 350.048 152.979 357.179 152.578C362.914 152.252 367.011 150.22 369.995 147.344Z" fill="white"/>
<path d="M346.596 132.865C346.596 132.865 343.16 147.344 343.16 155.913C343.16 164.482 349.071 175.543 358.785 171.923C368.499 168.303 370.029 158.045 370.029 151.357C370.029 144.669 369.653 135.548 369.653 135.548C369.653 135.548 364.888 139.361 357.456 136.878C350.024 134.395 346.596 132.865 346.596 132.865Z" stroke="#263238" stroke-linecap="round" stroke-linejoin="round"/>
<path d="M368.7 138.575C368.7 138.575 364.127 144.677 362.79 150.772C361.452 156.866 363.55 160.495 363.55 160.495" stroke="#263238" stroke-linecap="round" stroke-linejoin="round"/>
<path d="M350.374 249.094C350.182 246.235 349.989 237.089 355.9 222.041C361.81 206.993 366.375 184.496 367.52 166.029C368.666 147.562 369.619 135.54 369.619 135.54C369.619 132.104 370.948 130.014 381.047 131.536C391.146 133.057 414.01 136.301 413.826 139.352C413.642 142.404 400.45 185.081 398.962 196.326C397.474 207.57 397.817 212.134 403.535 209.275C409.253 206.416 417.254 201.651 417.254 201.651V210.22C417.254 210.22 397.056 236.136 391.146 240.14C385.235 244.145 385.427 243.376 383.906 238.803C382.384 234.23 382.384 218.421 382.384 218.421C375.955 236.044 376.298 246.126 377.009 250.423H350.499C350.474 250.005 350.441 249.604 350.374 249.094ZM390.945 185.19L398.469 157.184L390.945 185.19ZM283.736 250.423H318.422C319.559 245.599 324.792 223.562 328.68 211.557C333.06 198.031 338.779 181.261 339.924 171.162C341.069 161.063 345.834 134.194 345.834 134.194C346.595 129.053 345.834 129.621 345.834 129.621C345.834 129.621 309.243 130.19 306.542 130.382C303.842 130.574 305.021 148.866 305.021 174.974C305.054 198.959 286.721 243.359 283.736 250.423ZM311.726 177.641L317.82 169.64L311.726 177.641Z" fill="white"/>
<path d="M398.996 196.317C399.288 194.144 400.016 190.808 400.994 186.812L394.013 185.499C394.013 185.499 370.129 228.052 358.182 237.014C355.507 239.02 352.907 240.843 350.583 242.548C350.337 244.721 350.278 246.911 350.408 249.094C350.408 249.604 350.474 250.03 350.499 250.423H377.042C376.332 246.126 375.989 236.044 382.418 218.421C382.418 218.421 382.418 234.23 383.939 238.803C385.461 243.376 385.277 244.145 391.179 240.14C397.081 236.136 417.254 210.22 417.254 210.22V201.651C417.254 201.651 409.254 206.416 403.535 209.267C397.817 212.118 397.466 207.553 398.996 196.317Z" fill="#92E3A9"/>
<path d="M307.044 187.364L301.56 198.332C296.084 220.662 285.893 245.315 283.736 250.423H291.996L307.044 187.364Z" fill="#92E3A9"/>
<path opacity="0.5" d="M398.996 196.317C399.288 194.144 400.016 190.808 400.994 186.812L394.013 185.499C394.013 185.499 370.129 228.052 358.182 237.014C355.507 239.02 352.907 240.843 350.583 242.548C350.337 244.721 350.278 246.911 350.408 249.094C350.408 249.604 350.474 250.03 350.499 250.423H377.042C376.332 246.126 375.989 236.044 382.418 218.421C382.418 218.421 382.418 234.23 383.939 238.803C385.461 243.376 385.277 244.145 391.179 240.14C397.081 236.136 417.254 210.22 417.254 210.22V201.651C417.254 201.651 409.254 206.416 403.535 209.267C397.817 212.118 397.466 207.553 398.996 196.317Z" fill="white"/>
<path opacity="0.5" d="M307.044 187.364L301.56 198.332C296.084 220.662 285.893 245.315 283.736 250.423H291.996L307.044 187.364Z" fill="white"/>
<path d="M311.726 177.641L317.82 169.64M350.374 249.094C350.182 246.235 349.989 237.089 355.9 222.041C361.81 206.993 366.375 184.496 367.52 166.029C368.666 147.562 369.619 135.54 369.619 135.54C369.619 132.104 370.948 130.014 381.047 131.536C391.146 133.057 414.01 136.301 413.826 139.352C413.642 142.404 400.45 185.081 398.962 196.326C397.474 207.57 397.817 212.134 403.535 209.275C409.253 206.416 417.254 201.651 417.254 201.651V210.22C417.254 210.22 397.056 236.136 391.146 240.14C385.235 244.145 385.427 243.376 383.906 238.803C382.384 234.23 382.384 218.421 382.384 218.421C375.955 236.044 376.298 246.126 377.009 250.423H350.499C350.474 250.005 350.441 249.604 350.374 249.094ZM390.945 185.19L398.469 157.184L390.945 185.19ZM283.736 250.423H318.422C319.559 245.599 324.792 223.562 328.68 211.557C333.06 198.031 338.779 181.261 339.924 171.162C341.069 161.063 345.834 134.194 345.834 134.194C346.595 129.053 345.834 129.621 345.834 129.621C345.834 129.621 309.243 130.19 306.542 130.382C303.842 130.574 305.021 148.866 305.021 174.974C305.054 198.959 286.721 243.359 283.736 250.423Z" stroke="#263238" stroke-linecap="round" stroke-linejoin="round"/>
<path d="M343.929 129.429L328.873 156.49L334.967 164.875L327.92 169.824L323.731 224.323" stroke="#263238" stroke-linecap="round" stroke-linejoin="round"/>
<path d="M375.212 133.065L379.835 160.862L373.49 165.72L380.955 172.433L362.287 216.858" stroke="#263238" stroke-linecap="round" stroke-linejoin="round"/>
<path d="M326.774 208.698C326.774 208.698 336.497 204.694 342.207 199.937C347.917 195.18 358.024 181.069 359.763 181.261C361.502 181.453 371.768 188.885 376.917 190.599C382.067 192.313 385.871 192.313 385.679 193.458C385.486 194.603 383.396 195.74 379.392 195.74C375.388 195.74 364.528 190.022 364.528 190.022C364.528 190.022 370.438 197.646 369.485 198.599C365.752 201.534 361.652 203.968 357.288 205.839C352.715 207.553 349.664 209.083 348.711 208.891C347.758 208.698 347.95 206.792 348.527 206.224L350.241 204.51C350.241 204.51 346.195 207.369 344.113 207.369H342.015L325.629 221.272L326.774 208.698Z" fill="white"/>
<path d="M383.983 195.005H383.815C374.828 194.386 362.447 186.954 362.447 186.954L364.504 190.039C364.504 190.039 375.372 195.757 379.368 195.757C380.94 195.807 382.507 195.552 383.983 195.005Z" fill="#92E3A9"/>
<path d="M364.303 197.153C362.756 198.399 360.281 195.607 360.281 195.607C360.281 195.607 360.9 201.801 359.044 202.111C357.188 202.42 354.705 200.564 354.705 200.564C354.705 200.564 354.705 204.585 352.849 204.585C350.993 204.585 348.21 198.733 348.21 198.733C348.21 198.733 348.878 201.676 346.964 203.682C345.049 205.689 341.396 205.229 341.396 205.229L326.841 215.729L326.005 216.699L325.596 221.263L342.015 207.369H344.105C346.203 207.369 350.208 204.51 350.208 204.51L348.494 206.224C347.917 206.792 347.725 208.732 348.678 208.891C349.631 209.049 352.682 207.553 357.255 205.839C361.619 203.968 365.719 201.534 369.452 198.599C370.405 197.646 364.495 190.022 364.495 190.022C364.495 190.022 365.849 195.916 364.303 197.153Z" fill="#92E3A9"/>
<g opacity="0.5">
<path opacity="0.5" d="M383.983 195.005H383.815C374.828 194.386 362.447 186.954 362.447 186.954L364.504 190.039C364.504 190.039 375.372 195.757 379.368 195.757C380.94 195.807 382.507 195.552 383.983 195.005Z" fill="white"/>
<path opacity="0.5" d="M364.303 197.153C362.756 198.399 360.281 195.607 360.281 195.607C360.281 195.607 360.9 201.801 359.044 202.111C357.188 202.42 354.705 200.564 354.705 200.564C354.705 200.564 354.705 204.585 352.849 204.585C350.993 204.585 348.21 198.733 348.21 198.733C348.21 198.733 348.878 201.676 346.964 203.682C345.049 205.689 341.396 205.229 341.396 205.229L326.841 215.729L326.005 216.699L325.596 221.263L342.015 207.369H344.105C346.203 207.369 350.208 204.51 350.208 204.51L348.494 206.224C347.917 206.792 347.725 208.732 348.678 208.891C349.631 209.049 352.682 207.553 357.255 205.839C361.619 203.968 365.719 201.534 369.452 198.599C370.405 197.646 364.495 190.022 364.495 190.022C364.495 190.022 365.849 195.916 364.303 197.153Z" fill="white"/>
</g>
<path d="M350.216 204.51L348.879 201.651" stroke="#263238" stroke-linecap="round" stroke-linejoin="round"/>
<path d="M353.836 198.031C353.836 198.031 357.648 205.078 357.264 205.839" stroke="#263238" stroke-linecap="round" stroke-linejoin="round"/>
<path d="M358.977 192.881C358.977 192.881 364.887 201.241 363.934 202.604" stroke="#263238" stroke-linecap="round" stroke-linejoin="round"/>
<path d="M326.774 208.698C326.774 208.698 336.497 204.694 342.207 199.937C347.917 195.18 358.024 181.069 359.763 181.261C361.502 181.453 371.768 188.885 376.917 190.599C382.067 192.313 385.871 192.313 385.679 193.458C385.487 194.603 383.396 195.74 379.392 195.74C375.388 195.74 364.528 190.022 364.528 190.022C364.528 190.022 370.438 197.646 369.485 198.599C365.752 201.534 361.652 203.968 357.288 205.839C352.715 207.553 349.664 209.083 348.711 208.891C347.758 208.698 347.95 206.792 348.527 206.224L350.241 204.51C350.241 204.51 346.195 207.369 344.113 207.369H342.015L325.629 221.272L326.774 208.698Z" stroke="#263238" stroke-linecap="round" stroke-linejoin="round"/>
<path d="M310.012 130.006C310.012 130.006 303.717 129.429 302.195 129.429C300.674 129.429 298.383 130.574 298.015 135.716C297.647 140.857 272.626 237.089 272.626 239.563C272.626 242.038 276.413 242.907 288.117 239.948C297.99 237.44 327.317 227.567 327.317 227.567L329.909 206.759L299.378 212.895L314.242 169.256" fill="white"/>
<path d="M328.212 220.62C326.055 221.197 291.896 230.367 285.392 232.533C278.704 234.773 292.857 223.571 288.008 223.947C283.16 224.323 277.55 231.036 277.55 231.036L290.541 167.283C283.068 197.337 272.626 237.967 272.626 239.563C272.626 242.071 276.413 242.907 288.117 239.948C297.99 237.44 327.317 227.567 327.317 227.567L328.212 220.62Z" fill="#92E3A9"/>
<path opacity="0.5" d="M328.212 220.62C326.055 221.197 291.896 230.367 285.392 232.533C278.704 234.773 292.857 223.571 288.008 223.947C283.16 224.323 277.55 231.036 277.55 231.036L290.541 167.283C283.068 197.337 272.626 237.967 272.626 239.563C272.626 242.071 276.413 242.907 288.117 239.948C297.99 237.44 327.317 227.567 327.317 227.567L328.212 220.62Z" fill="white"/>
<path d="M310.012 130.006C310.012 130.006 303.717 129.429 302.195 129.429C300.674 129.429 298.383 130.574 298.015 135.716C297.647 140.857 272.626 237.089 272.626 239.563C272.626 242.038 276.413 242.907 288.117 239.948C297.99 237.44 327.317 227.567 327.317 227.567L329.909 206.759L299.378 212.895L314.242 169.256" stroke="#263238" stroke-linecap="round" stroke-linejoin="round"/>
<path d="M311.267 182.724L309.553 204.067L323.313 204.619L324.609 183.869L311.267 182.724Z" fill="#263238" stroke="#263238" stroke-linecap="round" stroke-linejoin="round"/>
<path d="M316.416 177.357L316.232 185.742L319.852 185.934L320.036 177.357H316.416Z" fill="white" stroke="#263238" stroke-linecap="round" stroke-linejoin="round"/>
<path d="M390.963 172.082L366.468 225.669C366.317 225.997 366.251 226.358 366.275 226.719C366.3 227.079 366.414 227.428 366.608 227.733C366.801 228.038 367.068 228.289 367.384 228.465C367.7 228.64 368.054 228.734 368.416 228.737L408.109 229.072C408.518 229.076 408.919 228.965 409.267 228.751C409.615 228.536 409.895 228.227 410.074 227.859L435.647 175.125C435.805 174.799 435.879 174.439 435.862 174.077C435.845 173.716 435.737 173.364 435.549 173.055C435.361 172.746 435.099 172.488 434.786 172.307C434.473 172.125 434.119 172.024 433.757 172.015L393.011 170.819C392.583 170.806 392.161 170.918 391.797 171.143C391.433 171.367 391.143 171.694 390.963 172.082Z" fill="#263238" stroke="#263238" stroke-linecap="round" stroke-linejoin="round"/>
<path d="M374.819 210.011L372.862 214.3" stroke="white" stroke-linecap="round" stroke-linejoin="round"/>
<path d="M399.875 171.822L393.814 171.638C393.388 171.628 392.968 171.743 392.607 171.969C392.246 172.195 391.959 172.522 391.782 172.909L376.291 206.742" stroke="white" stroke-linecap="round" stroke-linejoin="round"/>
<path d="M404.982 171.973L401.771 171.873" stroke="white" stroke-linecap="round" stroke-linejoin="round"/>
<path d="M427.838 203.331C427.838 203.331 423.098 205.379 419.478 206.784C415.858 208.188 417.94 209.476 419.353 209.476C420.766 209.476 426.267 207.804 428.315 206.533C430.363 205.262 430.137 202.947 427.838 203.331Z" fill="#92E3A9"/>
<path opacity="0.5" d="M427.838 203.331C427.838 203.331 423.098 205.379 419.478 206.784C415.858 208.188 417.94 209.476 419.353 209.476C420.766 209.476 426.267 207.804 428.315 206.533C430.363 205.262 430.137 202.947 427.838 203.331Z" fill="white"/>
<path d="M427.838 203.331C427.838 203.331 423.098 205.379 419.478 206.784C415.858 208.188 417.94 209.476 419.353 209.476C420.766 209.476 426.267 207.804 428.315 206.533C430.363 205.262 430.137 202.947 427.838 203.331Z" stroke="#263238" stroke-linecap="round" stroke-linejoin="round"/>
<path d="M430.455 198.357C430.455 198.357 424.017 201.141 419.144 203.047C414.27 204.953 417.062 206.7 418.976 206.7C420.891 206.7 428.365 204.443 431.149 202.704C433.932 200.965 433.581 197.83 430.455 198.357Z" fill="#92E3A9"/>
<path opacity="0.5" d="M430.455 198.357C430.455 198.357 424.017 201.141 419.144 203.047C414.27 204.953 417.062 206.7 418.976 206.7C420.891 206.7 428.365 204.443 431.149 202.704C433.932 200.965 433.581 197.83 430.455 198.357Z" fill="white"/>
<path d="M430.455 198.357C430.455 198.357 424.017 201.141 419.144 203.047C414.27 204.953 417.062 206.7 418.976 206.7C420.891 206.7 428.365 204.443 431.149 202.704C433.932 200.965 433.581 197.83 430.455 198.357Z" stroke="#263238" stroke-linecap="round" stroke-linejoin="round"/>
<path d="M430.262 193.709C430.262 193.709 423.206 196.752 417.873 198.85C412.539 200.949 415.59 202.855 417.68 202.855C419.77 202.855 427.972 200.347 431.056 198.466C434.141 196.585 433.69 193.157 430.262 193.709Z" fill="#92E3A9"/>
<path opacity="0.5" d="M430.262 193.709C430.262 193.709 423.206 196.752 417.873 198.85C412.539 200.949 415.59 202.855 417.68 202.855C419.77 202.855 427.972 200.347 431.056 198.466C434.141 196.585 433.69 193.157 430.262 193.709Z" fill="white"/>
<path d="M430.262 193.709C430.262 193.709 423.206 196.752 417.873 198.85C412.539 200.949 415.59 202.855 417.68 202.855C419.77 202.855 427.972 200.347 431.056 198.466C434.141 196.585 433.69 193.157 430.262 193.709Z" stroke="#263238" stroke-linecap="round" stroke-linejoin="round"/>
<path d="M430.814 189.454C430.814 189.454 423.766 192.505 418.433 194.595C413.099 196.685 416.142 198.6 418.24 198.6C420.339 198.6 428.532 196.091 431.575 194.219C434.618 192.346 434.241 188.885 430.814 189.454Z" fill="#92E3A9"/>
<path opacity="0.5" d="M430.814 189.454C430.814 189.454 423.766 192.505 418.433 194.595C413.099 196.685 416.142 198.6 418.24 198.6C420.339 198.6 428.532 196.091 431.575 194.219C434.618 192.346 434.241 188.885 430.814 189.454Z" fill="white"/>
<path d="M430.814 189.454C430.814 189.454 423.766 192.505 418.433 194.595C413.099 196.685 416.142 198.6 418.24 198.6C420.339 198.6 428.532 196.091 431.575 194.219C434.618 192.346 434.241 188.885 430.814 189.454Z" stroke="#263238" stroke-linecap="round" stroke-linejoin="round"/>
<path d="M358.977 84.2681C358.977 84.2681 345.258 93.0377 342.399 96.4653C339.54 99.8929 340.877 107.141 341.07 109.423C341.262 111.706 341.446 126.979 342.783 129.429C344.121 131.878 348.209 141.735 361.518 141.133C371.107 140.69 375.939 132.881 377.845 127.924C379.067 124.483 379.834 120.897 380.127 117.257C380.127 117.257 385.67 116.295 385.67 111.722C385.67 107.149 384.433 101.816 381.841 102.393C380.529 102.685 378.798 105.628 378.798 105.628C373.875 102.25 369.383 98.283 365.422 93.8152C359.361 86.751 358.977 84.2681 358.977 84.2681Z" fill="white"/>
<path d="M358.116 92.2017C358.116 92.2017 370.656 108.805 378.798 105.578C373.875 102.2 369.383 98.2328 365.422 93.7651C359.328 86.7176 358.943 84.2347 358.943 84.2347C358.943 84.2347 345.225 93.0043 342.366 96.4319C341.715 97.264 341.256 98.2285 341.02 99.2576L358.116 92.2017Z" fill="#92E3A9"/>
<path d="M385.486 108.905C385.346 110.4 384.982 111.865 384.408 113.252C382.853 116.663 378.832 116.044 378.832 116.044C378.832 116.044 376.324 129.044 372.98 133.065C369.636 137.087 360.289 140.497 351.001 135.858C341.713 131.218 342.95 119.756 342.95 119.756C342.95 119.756 348.527 119.756 350.692 114.49C352.857 109.223 350.073 106.748 344.497 107.066C343.193 107.116 341.947 107.622 340.978 108.495C341.019 108.855 341.053 109.173 341.078 109.423C341.27 111.714 341.454 126.979 342.792 129.429C344.129 131.878 348.217 141.735 361.526 141.133C371.115 140.69 375.947 132.881 377.853 127.924C379.075 124.483 379.843 120.897 380.136 117.257C380.136 117.257 385.678 116.295 385.678 111.722C385.665 110.78 385.601 109.84 385.486 108.905Z" fill="#92E3A9"/>
<path opacity="0.5" d="M385.486 108.905C385.346 110.4 384.982 111.865 384.408 113.252C382.853 116.663 378.832 116.044 378.832 116.044C378.832 116.044 376.324 129.044 372.98 133.065C369.636 137.087 360.289 140.497 351.001 135.858C341.713 131.218 342.95 119.756 342.95 119.756C342.95 119.756 348.527 119.756 350.692 114.49C352.857 109.223 350.073 106.748 344.497 107.066C343.193 107.116 341.947 107.622 340.978 108.495C341.019 108.855 341.053 109.173 341.078 109.423C341.27 111.714 341.454 126.979 342.792 129.429C344.129 131.878 348.217 141.735 361.526 141.133C371.115 140.69 375.947 132.881 377.853 127.924C379.075 124.483 379.843 120.897 380.136 117.257C380.136 117.257 385.678 116.295 385.678 111.722C385.665 110.78 385.601 109.84 385.486 108.905Z" fill="white"/>
<path d="M369.821 117.769C373.716 116.145 375.557 111.671 373.933 107.776C372.31 103.881 367.836 102.039 363.94 103.663C360.045 105.287 358.204 109.761 359.828 113.656C361.452 117.551 365.926 119.392 369.821 117.769Z" fill="#92E3A9"/>
<path opacity="0.5" d="M369.821 117.769C373.716 116.145 375.557 111.671 373.933 107.776C372.31 103.881 367.836 102.039 363.94 103.663C360.045 105.287 358.204 109.761 359.828 113.656C361.452 117.551 365.926 119.392 369.821 117.769Z" fill="white"/>
<path opacity="0.5" d="M358.116 92.2017C358.116 92.2017 370.656 108.805 378.798 105.578C373.875 102.2 369.383 98.2328 365.422 93.7651C359.328 86.7176 358.943 84.2347 358.943 84.2347C358.943 84.2347 345.225 93.0043 342.366 96.4319C341.715 97.264 341.256 98.2285 341.02 99.2576L358.116 92.2017Z" fill="white"/>
<path d="M358.977 84.2681C358.977 84.2681 345.258 93.0377 342.399 96.4653C339.54 99.8929 340.877 107.141 341.07 109.423C341.262 111.706 341.446 126.979 342.783 129.429C344.121 131.878 348.209 141.735 361.518 141.133C371.107 140.69 375.939 132.881 377.845 127.924C379.067 124.483 379.834 120.897 380.127 117.257C380.127 117.257 385.67 116.295 385.67 111.722C385.67 107.149 384.433 101.816 381.841 102.393C380.529 102.685 378.798 105.628 378.798 105.628C373.875 102.25 369.383 98.283 365.422 93.8152C359.361 86.751 358.977 84.2681 358.977 84.2681Z" stroke="#263238" stroke-linecap="round" stroke-linejoin="round"/>
<path d="M345.642 116.086C349.955 116.086 353.45 112.59 353.45 108.278C353.45 103.966 349.955 100.47 345.642 100.47C341.33 100.47 337.834 103.966 337.834 108.278C337.834 112.59 341.33 116.086 345.642 116.086Z" fill="white"/>
<path d="M339.18 112.675C340.237 114.22 341.814 115.335 343.624 115.815C345.434 116.295 347.356 116.11 349.041 115.293C350.726 114.476 352.061 113.082 352.804 111.363C353.548 109.644 353.649 107.716 353.091 105.929C352.439 107.358 351.661 108.437 350.817 108.504C348.175 108.729 347.682 108.161 345.642 108.278C344.321 108.362 341.22 110.886 339.18 112.675Z" fill="#92E3A9"/>
<path d="M345.642 116.086C349.955 116.086 353.45 112.59 353.45 108.278C353.45 103.966 349.955 100.47 345.642 100.47C341.33 100.47 337.834 103.966 337.834 108.278C337.834 112.59 341.33 116.086 345.642 116.086Z" stroke="#263238" stroke-linecap="round" stroke-linejoin="round"/>
<path d="M366.986 116.086C371.298 116.086 374.794 112.59 374.794 108.278C374.794 103.966 371.298 100.47 366.986 100.47C362.674 100.47 359.178 103.966 359.178 108.278C359.178 112.59 362.674 116.086 366.986 116.086Z" fill="white"/>
<path d="M366.986 116.095C369.057 116.092 371.043 115.268 372.507 113.802C373.972 112.337 374.794 110.35 374.794 108.278C374.794 107.445 374.658 106.618 374.393 105.829C371.684 110.669 368.382 108.144 365.071 107.81C363.082 107.609 361.209 109.8 359.972 111.714C360.613 113.028 361.611 114.135 362.851 114.909C364.091 115.684 365.524 116.094 366.986 116.095Z" fill="#92E3A9"/>
<path d="M366.986 116.086C371.298 116.086 374.794 112.59 374.794 108.278C374.794 103.966 371.298 100.47 366.986 100.47C362.674 100.47 359.178 103.966 359.178 108.278C359.178 112.59 362.674 116.086 366.986 116.086Z" stroke="#263238" stroke-linecap="round" stroke-linejoin="round"/>
<path d="M353.451 105.235C353.451 105.235 356.695 102.376 359.554 105.235" stroke="#263238" stroke-linecap="round" stroke-linejoin="round"/>
<path d="M342.783 98.3714C342.783 98.3714 345.642 94.367 350.215 95.32" stroke="#263238" stroke-linecap="round" stroke-linejoin="round"/>
<path d="M360.314 94.9438C360.314 94.9438 364.887 93.0378 369.268 98.1792" stroke="#263238" stroke-linecap="round" stroke-linejoin="round"/>
<path d="M354.596 108.094C354.596 108.094 355.165 112.667 354.028 114.782C352.891 116.897 350.408 118.026 351.361 119.547C352.314 121.069 355.541 121.838 355.541 121.838" stroke="#263238" stroke-linecap="round" stroke-linejoin="round"/>
<path d="M354.789 126.193C354.789 126.193 359.554 127.339 362.79 123.903" stroke="#263238" stroke-linecap="round" stroke-linejoin="round"/>
<path d="M182.238 250.423H118.577" stroke="#263238" stroke-linecap="round" stroke-linejoin="round"/>
<path d="M408.309 250.423H189.695" stroke="#263238" stroke-linecap="round" stroke-linejoin="round"/>
<path d="M422.279 250.423H414.521" stroke="#263238" stroke-linecap="round" stroke-linejoin="round"/>
<path opacity="0.71" d="M308.641 80.1801H156.765V174.774H308.641V80.1801Z" fill="white"/>
<path d="M154.291 74.5287V180.416H311.082V74.5287H154.291ZM308.633 174.765H156.765V80.1801H308.633V174.765Z" fill="#92E3A9" stroke="#263238" stroke-linecap="round" stroke-linejoin="round"/>
<path d="M162.834 83.173H264.325C265.072 83.173 265.789 83.4698 266.317 83.9981C266.845 84.5265 267.142 85.2431 267.142 85.9903V88.7324C267.142 89.4818 266.844 90.2005 266.315 90.7304C265.785 91.2604 265.066 91.5581 264.316 91.5581H162.834C162.464 91.5581 162.098 91.4852 161.756 91.3436C161.414 91.202 161.104 90.9945 160.842 90.7329C160.581 90.4713 160.373 90.1607 160.232 89.8189C160.09 89.4771 160.017 89.1107 160.017 88.7407V85.9987C160.016 85.628 160.088 85.2607 160.229 84.9179C160.37 84.5752 160.578 84.2636 160.839 84.0011C161.101 83.7386 161.412 83.5303 161.754 83.3882C162.097 83.2461 162.464 83.173 162.834 83.173Z" fill="#92E3A9" stroke="#263238" stroke-linecap="round" stroke-linejoin="round"/>
<path d="M161.756 101.047H183.801" stroke="#263238" stroke-linecap="round" stroke-linejoin="round"/>
<path d="M161.756 106.012H183.801" stroke="#263238" stroke-linecap="round" stroke-linejoin="round"/>
<path d="M161.756 110.978H183.801" stroke="#263238" stroke-linecap="round" stroke-linejoin="round"/>
<path d="M161.756 116.262H183.801" stroke="#263238" stroke-linecap="round" stroke-linejoin="round"/>
<path d="M188.09 101.047H210.135" stroke="#263238" stroke-linecap="round" stroke-linejoin="round"/>
<path d="M188.09 106.012H210.135" stroke="#263238" stroke-linecap="round" stroke-linejoin="round"/>
<path d="M188.09 110.978H210.135" stroke="#263238" stroke-linecap="round" stroke-linejoin="round"/>
<path d="M188.09 116.262H210.135" stroke="#263238" stroke-linecap="round" stroke-linejoin="round"/>
<path d="M214.424 101.047H236.469" stroke="#263238" stroke-linecap="round" stroke-linejoin="round"/>
<path d="M214.424 106.012H236.469" stroke="#263238" stroke-linecap="round" stroke-linejoin="round"/>
<path d="M214.424 110.978H236.469" stroke="#263238" stroke-linecap="round" stroke-linejoin="round"/>
<path d="M214.424 116.262H236.469" stroke="#263238" stroke-linecap="round" stroke-linejoin="round"/>
<path d="M240.758 101.047H262.803" stroke="#263238" stroke-linecap="round" stroke-linejoin="round"/>
<path d="M240.758 106.012H262.803" stroke="#263238" stroke-linecap="round" stroke-linejoin="round"/>
<path d="M240.758 110.978H262.803" stroke="#263238" stroke-linecap="round" stroke-linejoin="round"/>
<path d="M240.758 116.262H262.803" stroke="#263238" stroke-linecap="round" stroke-linejoin="round"/>
<path d="M175.032 151.566L193.75 132.848L207.527 145.213L219.181 134.612L236.494 147.679L255.213 127.899" stroke="#263238" stroke-linecap="round" stroke-linejoin="round"/>
<path d="M193.75 135.323C195.117 135.323 196.225 134.215 196.225 132.848C196.225 131.481 195.117 130.373 193.75 130.373C192.383 130.373 191.275 131.481 191.275 132.848C191.275 134.215 192.383 135.323 193.75 135.323Z" fill="#92E3A9" stroke="#263238" stroke-linecap="round" stroke-linejoin="round"/>
<path d="M219.181 137.087C220.548 137.087 221.656 135.979 221.656 134.612C221.656 133.245 220.548 132.137 219.181 132.137C217.814 132.137 216.707 133.245 216.707 134.612C216.707 135.979 217.814 137.087 219.181 137.087Z" fill="#92E3A9" stroke="#263238" stroke-linecap="round" stroke-linejoin="round"/>
<path d="M236.494 150.153C237.861 150.153 238.969 149.045 238.969 147.679C238.969 146.312 237.861 145.204 236.494 145.204C235.127 145.204 234.02 146.312 234.02 147.679C234.02 149.045 235.127 150.153 236.494 150.153Z" fill="#92E3A9" stroke="#263238" stroke-linecap="round" stroke-linejoin="round"/>
<path d="M254.861 130.374C256.228 130.374 257.336 129.266 257.336 127.899C257.336 126.532 256.228 125.424 254.861 125.424C253.495 125.424 252.387 126.532 252.387 127.899C252.387 129.266 253.495 130.374 254.861 130.374Z" fill="#92E3A9" stroke="#263238" stroke-linecap="round" stroke-linejoin="round"/>
<path d="M175.032 154.041C176.398 154.041 177.506 152.933 177.506 151.566C177.506 150.199 176.398 149.092 175.032 149.092C173.665 149.092 172.557 150.199 172.557 151.566C172.557 152.933 173.665 154.041 175.032 154.041Z" fill="#92E3A9" stroke="#263238" stroke-linecap="round" stroke-linejoin="round"/>
<path d="M207.527 146.977C208.894 146.977 210.002 145.869 210.002 144.502C210.002 143.135 208.894 142.027 207.527 142.027C206.161 142.027 205.053 143.135 205.053 144.502C205.053 145.869 206.161 146.977 207.527 146.977Z" fill="#92E3A9" stroke="#263238" stroke-linecap="round" stroke-linejoin="round"/>
<path d="M273.955 172.658C273.578 172.658 273.217 172.509 272.95 172.242C272.684 171.976 272.534 171.614 272.534 171.237V84.4771C272.534 84.1002 272.684 83.7387 272.95 83.4722C273.217 83.2056 273.578 83.0559 273.955 83.0559C274.333 83.0559 274.695 83.2054 274.963 83.4717C275.231 83.7379 275.383 84.0994 275.385 84.4771V171.237C275.383 171.615 275.231 171.976 274.963 172.243C274.695 172.509 274.333 172.658 273.955 172.658Z" fill="#92E3A9" stroke="#263238" stroke-linecap="round" stroke-linejoin="round"/>
<path d="M289.647 100.47H305.548" stroke="#263238" stroke-linecap="round" stroke-linejoin="round"/>
<path d="M278.295 100.47H283.846" stroke="#263238" stroke-linecap="round" stroke-linejoin="round"/>
<path d="M302.772 104.667H305.548" stroke="#263238" stroke-linecap="round" stroke-linejoin="round"/>
<path d="M294.947 104.667H300.498" stroke="#263238" stroke-linecap="round" stroke-linejoin="round"/>
<path d="M278.295 104.667H291.161" stroke="#263238" stroke-linecap="round" stroke-linejoin="round"/>
<path d="M291.411 108.863H305.548" stroke="#263238" stroke-linecap="round" stroke-linejoin="round"/>
<path d="M278.295 108.863H288.385" stroke="#263238" stroke-linecap="round" stroke-linejoin="round"/>
<path d="M299.487 113.052H305.548" stroke="#263238" stroke-linecap="round" stroke-linejoin="round"/>
<path d="M284.347 113.052H296.962" stroke="#263238" stroke-linecap="round" stroke-linejoin="round"/>
<path d="M278.295 113.052H281.572" stroke="#263238" stroke-linecap="round" stroke-linejoin="round"/>
<path d="M289.647 116.722H305.548" stroke="#263238" stroke-linecap="round" stroke-linejoin="round"/>
<path d="M278.295 116.722H283.846" stroke="#263238" stroke-linecap="round" stroke-linejoin="round"/>
<path d="M302.772 120.918H305.548" stroke="#263238" stroke-linecap="round" stroke-linejoin="round"/>
<path d="M294.947 120.918H300.498" stroke="#263238" stroke-linecap="round" stroke-linejoin="round"/>
<path d="M278.295 120.918H291.161" stroke="#263238" stroke-linecap="round" stroke-linejoin="round"/>
<path d="M291.411 125.107H305.548" stroke="#263238" stroke-linecap="round" stroke-linejoin="round"/>
<path d="M278.295 125.107H288.385" stroke="#263238" stroke-linecap="round" stroke-linejoin="round"/>
<path d="M299.487 129.303H305.548" stroke="#263238" stroke-linecap="round" stroke-linejoin="round"/>
<path d="M284.347 129.303H296.962" stroke="#263238" stroke-linecap="round" stroke-linejoin="round"/>
<path d="M278.295 129.303H281.572" stroke="#263238" stroke-linecap="round" stroke-linejoin="round"/>
<path d="M289.647 132.973H305.548" stroke="#263238" stroke-linecap="round" stroke-linejoin="round"/>
<path d="M278.295 132.974H283.846" stroke="#263238" stroke-linecap="round" stroke-linejoin="round"/>
<path d="M302.772 137.162H305.548" stroke="#263238" stroke-linecap="round" stroke-linejoin="round"/>
<path d="M294.947 137.162H300.498" stroke="#263238" stroke-linecap="round" stroke-linejoin="round"/>
<path d="M278.295 137.162H291.161" stroke="#263238" stroke-linecap="round" stroke-linejoin="round"/>
<path d="M291.411 141.359H305.548" stroke="#263238" stroke-linecap="round" stroke-linejoin="round"/>
<path d="M278.295 141.359H288.385" stroke="#263238" stroke-linecap="round" stroke-linejoin="round"/>
<path d="M299.487 145.555H305.548" stroke="#263238" stroke-linecap="round" stroke-linejoin="round"/>
<path d="M284.347 145.555H296.962" stroke="#263238" stroke-linecap="round" stroke-linejoin="round"/>
<path d="M278.295 145.555H281.572" stroke="#263238" stroke-linecap="round" stroke-linejoin="round"/>
<path d="M289.647 149.217H305.548" stroke="#263238" stroke-linecap="round" stroke-linejoin="round"/>
<path d="M278.295 149.217H283.846" stroke="#263238" stroke-linecap="round" stroke-linejoin="round"/>
<path d="M302.772 153.414H305.548" stroke="#263238" stroke-linecap="round" stroke-linejoin="round"/>
<path d="M294.947 153.414H300.498" stroke="#263238" stroke-linecap="round" stroke-linejoin="round"/>
<path d="M278.295 153.414H291.161" stroke="#263238" stroke-linecap="round" stroke-linejoin="round"/>
<path d="M291.411 157.61H305.548" stroke="#263238" stroke-linecap="round" stroke-linejoin="round"/>
<path d="M278.295 157.61H288.385" stroke="#263238" stroke-linecap="round" stroke-linejoin="round"/>
<path d="M299.487 161.799H305.548" stroke="#263238" stroke-linecap="round" stroke-linejoin="round"/>
<path d="M284.347 161.799H296.962" stroke="#263238" stroke-linecap="round" stroke-linejoin="round"/>
<path d="M278.295 161.799H281.572" stroke="#263238" stroke-linecap="round" stroke-linejoin="round"/>
<path d="M167.349 163.872H163.587V172.232H167.349V163.872Z" fill="#92E3A9"/>
<path d="M174.873 167.601H171.111V172.232H174.873V167.601Z" fill="#263238"/>
<path d="M182.397 169.757H178.635V172.232H182.397V169.757Z" fill="#92E3A9"/>
<path d="M189.921 166.313H186.159V172.232H189.921V166.313Z" fill="#263238"/>
<path d="M197.445 168.462H193.683V172.232H197.445V168.462Z" fill="#92E3A9"/>
<path d="M204.969 166.021H201.207V172.232H204.969V166.021Z" fill="#263238"/>
<path d="M212.493 171.187H208.731V172.232H212.493V171.187Z" fill="#92E3A9"/>
<path d="M220.017 163.872H216.255V172.232H220.017V163.872Z" fill="#263238"/>
<path d="M227.541 169.181H223.779V172.232H227.541V169.181Z" fill="#92E3A9"/>
<path d="M235.065 171.045H231.303V172.232H235.065V171.045Z" fill="#263238"/>
<path d="M242.589 169.465H238.827V172.232H242.589V169.465Z" fill="#92E3A9"/>
<path d="M250.114 163.872H246.352V172.232H250.114V163.872Z" fill="#263238"/>
<path d="M257.637 165.594H253.875V172.232H257.637V165.594Z" fill="#92E3A9"/>
<path d="M265.16 166.74H261.398V172.232H265.16V166.74Z" fill="#263238"/>
<path d="M280.986 94.7098V50.9284H289.371" stroke="#263238" stroke-linecap="round" stroke-linejoin="round"/>
<path d="M295.893 50.6191H311.417" stroke="#263238" stroke-linecap="round" stroke-linejoin="round"/>
<path d="M295.893 55.585H311.417" stroke="#263238" stroke-linecap="round" stroke-linejoin="round"/>
<path d="M295.893 60.5508H311.417" stroke="#263238" stroke-linecap="round" stroke-linejoin="round"/>
<path d="M164.498 230.058H180.951" stroke="#263238" stroke-linecap="round" stroke-linejoin="round"/>
<path d="M164.498 234.715H180.951" stroke="#263238" stroke-linecap="round" stroke-linejoin="round"/>
<path d="M164.498 239.371H180.951" stroke="#263238" stroke-linecap="round" stroke-linejoin="round"/>
<path d="M164.498 244.028H180.951" stroke="#263238" stroke-linecap="round" stroke-linejoin="round"/>
<path d="M220.471 237.475C234.315 234.162 242.851 220.253 239.538 206.41C236.225 192.566 222.316 184.03 208.473 187.343C194.629 190.657 186.093 204.565 189.406 218.408C192.719 232.252 206.628 240.788 220.471 237.475Z" fill="#92E3A9" stroke="#263238" stroke-linecap="round" stroke-linejoin="round"/>
<path d="M218.966 231.115C229.309 228.647 235.693 218.262 233.225 207.919C230.757 197.576 220.372 191.193 210.029 193.66C199.686 196.128 193.302 206.513 195.77 216.856C198.238 227.199 208.623 233.583 218.966 231.115Z" fill="white" stroke="#263238" stroke-linecap="round" stroke-linejoin="round"/>
<path d="M225.736 217.012C228.284 210.796 225.31 203.691 219.094 201.143C212.879 198.595 205.774 201.569 203.226 207.785C200.678 214 203.651 221.105 209.867 223.653C216.083 226.201 223.188 223.228 225.736 217.012Z" fill="#92E3A9" stroke="#263238" stroke-linecap="round" stroke-linejoin="round"/>
<path d="M181.871 221.407C186.843 216.435 186.843 208.373 181.871 203.401C176.898 198.429 168.837 198.429 163.864 203.401C158.892 208.373 158.892 216.435 163.864 221.407C168.837 226.38 176.898 226.38 181.871 221.407Z" fill="white" stroke="#263238" stroke-linecap="round" stroke-linejoin="round"/>
<path d="M177.904 217.441C180.686 214.659 180.686 210.149 177.904 207.368C175.122 204.586 170.613 204.586 167.831 207.368C165.049 210.149 165.049 214.659 167.831 217.441C170.613 220.222 175.122 220.222 177.904 217.441Z" fill="#92E3A9" stroke="#263238" stroke-linecap="round" stroke-linejoin="round"/>
<path d="M150.799 219.74C154.859 219.075 157.611 215.245 156.946 211.186C156.281 207.126 152.451 204.374 148.391 205.039C144.332 205.703 141.579 209.533 142.244 213.593C142.909 217.653 146.739 220.405 150.799 219.74Z" fill="white" stroke="#263238" stroke-linecap="round" stroke-linejoin="round"/>
<path d="M153.755 212.385C153.755 211.558 153.51 210.75 153.051 210.063C152.592 209.375 151.939 208.84 151.175 208.523C150.411 208.207 149.571 208.124 148.76 208.285C147.949 208.447 147.204 208.845 146.62 209.429C146.035 210.014 145.637 210.759 145.476 211.57C145.315 212.38 145.397 213.221 145.714 213.985C146.03 214.749 146.566 215.401 147.253 215.861C147.941 216.32 148.749 216.565 149.576 216.565C150.684 216.565 151.747 216.125 152.531 215.341C153.315 214.557 153.755 213.494 153.755 212.385Z" fill="#92E3A9" stroke="#263238" stroke-linecap="round" stroke-linejoin="round"/>
<path d="M214.483 212.402H133.742" stroke="#263238" stroke-linecap="round" stroke-linejoin="round"/>
<path opacity="0.71" d="M267.042 33.9743H215.803V79.0013H267.042V33.9743Z" fill="white"/>
<path d="M267.042 33.9743H215.803V79.0013H267.042V33.9743Z" stroke="#263238" stroke-linecap="round" stroke-linejoin="round"/>
<path d="M267.042 33.9743H215.803V41.6321H267.042V33.9743Z" fill="#92E3A9" stroke="#263238" stroke-linecap="round" stroke-linejoin="round"/>
<path d="M241.577 68.7603C247.409 68.7603 252.136 64.0331 252.136 58.2017C252.136 52.3703 247.409 47.643 241.577 47.643C235.746 47.643 231.019 52.3703 231.019 58.2017C231.019 64.0331 235.746 68.7603 241.577 68.7603Z" fill="#263238" stroke="#263238" stroke-linecap="round" stroke-linejoin="round"/>
<path d="M236.629 51.2378L249.002 58.3772L236.629 65.525V51.2378Z" fill="white" stroke="#263238" stroke-linecap="round" stroke-linejoin="round"/>
</svg>
