<svg width="102" height="101" viewBox="0 0 102 101" fill="none" xmlns="http://www.w3.org/2000/svg">
<path d="M17 54.7083C24.5781 55.6001 31.633 58.9905 37.0292 64.3338C42.4255 69.6772 45.8494 76.6628 46.75 84.1667C50.5067 82.0221 53.649 78.9645 55.88 75.2826C58.1109 71.6008 59.3569 67.4164 59.5 63.125C66.6362 60.6392 72.8678 56.1139 77.4067 50.1213C81.9457 44.1287 84.5881 36.938 85 29.4583C85 26.11 83.6567 22.8988 81.2656 20.5311C78.8745 18.1635 75.6315 16.8333 72.25 16.8333C64.6963 17.2412 57.4344 19.8577 51.3825 24.3522C45.3305 28.8466 40.7604 35.0171 38.25 42.0833C33.9161 42.2251 29.6903 43.4588 25.972 45.6679C22.2537 47.877 19.1658 50.9885 17 54.7083" stroke="#4285F4" stroke-width="4.75" stroke-linecap="round" stroke-linejoin="round"/>
<path d="M29.7498 58.9167C25.3266 61.3894 21.7499 65.1138 19.4783 69.6125C17.2066 74.1112 16.3436 79.1791 16.9998 84.1667C22.0368 84.8164 27.1549 83.9619 31.6981 81.7125C36.2414 79.4632 40.0027 75.9216 42.4998 71.5417" stroke="#4285F4" stroke-width="4.75" stroke-linecap="round" stroke-linejoin="round"/>
<path d="M63.75 42.0833C66.0972 42.0833 68 40.1992 68 37.875C68 35.5508 66.0972 33.6667 63.75 33.6667C61.4028 33.6667 59.5 35.5508 59.5 37.875C59.5 40.1992 61.4028 42.0833 63.75 42.0833Z" stroke="#4285F4" stroke-width="4.75" stroke-linecap="round" stroke-linejoin="round"/>
</svg>
