<svg width="702" height="702" viewBox="0 0 702 702" fill="none" xmlns="http://www.w3.org/2000/svg">
<circle cx="351.097" cy="350.952" r="350.565" fill="#D8E6FD"/>
<path d="M210.274 529.133L125.8 481.646C145.201 451.236 146.676 433.881 149.993 409.72C160.645 332.421 235.36 283.084 293.467 242.424C298.361 238.884 303.432 235.609 308.659 232.612C314.848 229.209 331.941 218.681 336.5 228.413C340.826 237.747 330.097 254.743 324.743 261.569C328.259 256.162 332.149 251.021 336.383 246.185C337.705 244.38 339.533 243.033 341.622 242.324C345.502 241.409 349.266 245.23 349.868 249.27C350.469 253.31 348.82 257.35 346.996 261.012C342.675 269.793 337.269 277.967 330.912 285.333C335.181 280.397 350.954 261.808 350.624 280.616C350.359 292.469 345.541 303.735 337.218 311.961C340.833 308.682 344.729 305.745 348.859 303.185C349.443 302.71 350.118 302.365 350.839 302.174C351.561 301.982 352.314 301.946 353.049 302.07C353.827 302.457 354.495 303.043 354.988 303.771C355.481 304.5 355.782 305.347 355.863 306.23C358.501 318.29 351.982 326.908 347.481 337.217C344.008 345.178 341.971 352.8 337.528 360.542C321.483 388.525 304.778 407.949 286.405 434.399C281.865 441.205 210.526 529.252 210.274 529.133Z" fill="white"/>
<path d="M210.176 530.128C210.062 530.113 209.95 530.08 209.846 530.028L125.334 482.582C125.218 482.513 125.117 482.422 125.037 482.312C124.957 482.203 124.9 482.078 124.868 481.945C124.831 481.81 124.824 481.669 124.848 481.531C124.871 481.393 124.924 481.263 125.004 481.149C143.202 452.689 145.53 435.494 148.479 413.721L149.042 409.641C159.344 334.889 229.636 285.83 286.133 246.444L292.923 241.687C297.839 238.087 302.943 234.765 308.212 231.736L309.57 230.98C315.39 227.716 326.178 221.666 332.852 223.895C333.841 224.211 334.752 224.74 335.525 225.447C336.298 226.154 336.915 227.023 337.333 227.995C339.681 233.03 338.012 239.817 335.257 245.907L335.684 245.409C337.155 243.435 339.19 241.981 341.505 241.249C342.434 241.051 343.393 241.053 344.322 241.255C345.25 241.457 346.128 241.855 346.898 242.424C347.97 243.19 348.88 244.17 349.573 245.305C350.267 246.441 350.73 247.708 350.934 249.031C351.574 253.33 349.906 257.49 347.985 261.37C345.796 265.8 343.334 270.081 340.612 274.187C343.561 271.938 346.316 270.705 348.373 271.56C350.429 272.416 351.71 275.561 351.71 280.636C351.503 289.471 348.808 298.056 343.949 305.354C345.404 304.319 346.898 303.364 348.431 302.389C349.126 301.833 349.929 301.437 350.786 301.228C351.643 301.018 352.533 301 353.398 301.175C354.35 301.599 355.174 302.277 355.784 303.137C356.395 303.998 356.77 305.011 356.871 306.07C359.024 316.022 355.319 323.465 351.399 331.426C350.391 333.416 349.459 335.545 348.431 337.695C347.209 340.481 346.161 343.287 345.133 345.994C343.311 351.213 341.066 356.266 338.42 361.1C327.749 379.728 316.826 394.495 305.263 410.158C299.442 418.02 293.428 426.08 287.258 435.036C284.29 439.315 256.022 474.362 247.427 485.01C238.192 496.414 229.112 507.639 222.302 515.978C212.291 528.376 210.855 530.128 210.176 530.128ZM127.196 481.348L210.079 527.879C215.9 520.714 280.487 441.504 285.745 433.882C291.934 424.965 297.968 416.825 303.788 408.944C315.313 393.341 326.216 378.613 336.771 360.085C339.362 355.339 341.562 350.379 343.348 345.258C344.376 342.531 345.443 339.725 346.685 336.879C347.616 334.69 348.625 332.58 349.673 330.53C353.437 322.908 356.987 315.703 354.989 306.508C354.698 305.155 354.077 303.463 352.855 303.085C352.248 303.008 351.633 303.058 351.045 303.232C350.458 303.407 349.912 303.702 349.44 304.1C345.308 306.62 341.412 309.525 337.799 312.777C337.618 312.96 337.374 313.062 337.12 313.062C336.866 313.062 336.622 312.96 336.441 312.777C336.268 312.589 336.171 312.34 336.171 312.081C336.171 311.822 336.268 311.573 336.441 311.384C340.53 307.414 343.813 302.653 346.1 297.376C348.388 292.099 349.635 286.409 349.77 280.636C349.77 276.556 349.149 274.108 347.83 273.551C345.249 272.516 339.914 276.655 332.017 285.83L331.862 286.009C331.784 286.126 331.683 286.225 331.565 286.298C331.448 286.372 331.316 286.419 331.179 286.436C331.042 286.454 330.903 286.441 330.771 286.398C330.639 286.356 330.518 286.286 330.415 286.191C330.312 286.097 330.23 285.981 330.174 285.852C330.118 285.723 330.09 285.582 330.091 285.441C330.092 285.299 330.122 285.16 330.18 285.031C330.238 284.903 330.322 284.788 330.426 284.696C336.65 277.424 341.95 269.372 346.2 260.734C347.965 257.151 349.518 253.33 348.955 249.588C348.788 248.536 348.418 247.529 347.864 246.626C347.311 245.724 346.587 244.944 345.734 244.334C345.186 243.913 344.556 243.617 343.886 243.466C343.217 243.315 342.524 243.313 341.854 243.459C339.97 244.125 338.327 245.359 337.139 247.001C334.656 249.827 332.27 252.753 330.019 255.798C327.672 259.5 325.693 262.067 325.44 262.366C325.284 262.562 325.061 262.691 324.815 262.724C324.57 262.757 324.322 262.693 324.121 262.545C323.915 262.393 323.775 262.164 323.731 261.907C323.688 261.65 323.744 261.386 323.888 261.171C325.421 258.843 327.012 256.554 328.68 254.325C333.725 246.364 338.595 235.478 335.587 228.99C335.294 228.254 334.849 227.592 334.283 227.05C333.717 226.507 333.044 226.096 332.308 225.845C326.391 223.855 315.681 229.826 310.521 232.771L309.143 233.547C303.938 236.518 298.893 239.773 294.029 243.299L287.239 248.036C231.072 287.243 161.129 336.043 150.982 409.919L150.42 413.9C147.451 435.872 145.104 453.027 127.196 481.348Z" fill="#79C8A2"/>
<path d="M204.715 667.842C206.487 668.902 208.776 667.896 209.193 665.874L241.955 507.263C242.248 505.844 241.543 504.441 240.199 503.898C224.325 497.479 130.21 459.41 128.594 458.48C127.296 457.778 93.0167 562.885 88.167 577.778C87.808 578.881 88.1363 580.032 88.9796 580.828L140.178 629.152C140.336 629.301 140.51 629.433 140.697 629.545L204.715 667.842Z" fill="#79C8A2"/>
<path d="M316.733 129.579L157.327 179.259C150.489 181.391 146.63 188.805 148.707 195.82L236.416 491.95C238.493 498.965 245.721 502.924 252.56 500.793L411.965 451.112C418.803 448.981 422.663 441.567 420.585 434.552L332.877 138.421C330.799 131.406 323.571 127.447 316.733 129.579Z" fill="#79C8A2"/>
<path d="M248.882 502.384C245.898 502.384 242.993 501.398 240.597 499.574C238.2 497.75 236.439 495.184 235.573 492.254L147.781 196.132C147.234 194.332 147.039 192.44 147.209 190.563C147.378 188.686 147.909 186.862 148.769 185.197C149.629 183.531 150.803 182.057 152.222 180.86C153.641 179.662 155.277 178.765 157.036 178.22L316.458 128.465C318.204 127.918 320.039 127.73 321.856 127.912C323.673 128.094 325.438 128.641 327.049 129.523C328.66 130.404 330.086 131.603 331.244 133.05C332.403 134.498 333.273 136.165 333.803 137.958L421.556 434.299C422.625 437.92 422.249 441.829 420.51 445.165C418.771 448.502 415.811 450.993 412.282 452.092L252.879 501.847C251.58 502.225 250.233 502.406 248.882 502.384ZM320.668 130.017C319.484 130.018 318.308 130.2 317.176 130.554L157.696 180.23C156.191 180.698 154.791 181.467 153.576 182.491C152.36 183.515 151.354 184.774 150.613 186.197C149.873 187.62 149.413 189.179 149.26 190.785C149.107 192.39 149.264 194.011 149.722 195.554L237.242 491.597C238.169 494.712 240.262 497.322 243.063 498.855C245.863 500.389 249.142 500.72 252.181 499.777L411.583 450.022C414.593 449.086 417.123 446.973 418.626 444.139C420.129 441.304 420.485 437.977 419.615 434.877L331.96 138.734C331.212 136.216 329.697 134.01 327.636 132.441C325.576 130.872 323.079 130.022 320.513 130.017H320.668Z" fill="#79C8A2"/>
<path d="M327.506 154.55L162.68 205.92L237.416 458.253L402.242 406.883L327.506 154.55Z" fill="white"/>
<path d="M237.397 459.257C237.241 459.258 237.087 459.216 236.951 459.137C236.836 459.08 236.733 459 236.65 458.9C236.566 458.801 236.504 458.685 236.466 458.56L161.751 206.222C161.698 206.103 161.671 205.974 161.671 205.844C161.671 205.713 161.698 205.584 161.751 205.466C161.809 205.352 161.889 205.251 161.985 205.169C162.082 205.087 162.193 205.026 162.313 204.988L327.226 153.621C327.47 153.546 327.733 153.573 327.959 153.696C328.184 153.819 328.353 154.028 328.429 154.278L403.163 406.616C403.202 406.742 403.215 406.876 403.203 407.008C403.19 407.14 403.152 407.268 403.091 407.385C403.029 407.502 402.946 407.605 402.845 407.688C402.744 407.771 402.628 407.833 402.503 407.87L237.591 459.217C237.528 459.239 237.463 459.252 237.397 459.257ZM163.885 206.6L238.037 457.028L401.01 406.238L326.857 155.81L163.885 206.6Z" fill="#79C8A2"/>
<path d="M313.858 468.849C312.318 468.848 310.819 468.341 309.579 467.403C308.34 466.465 307.426 465.144 306.971 463.635L304.662 455.774C304.111 453.905 304.304 451.889 305.198 450.166C306.092 448.443 307.616 447.153 309.435 446.579L339.507 437.225C340.409 436.94 341.357 436.84 342.296 436.932C343.236 437.024 344.148 437.306 344.981 437.761C345.814 438.216 346.551 438.835 347.15 439.583C347.749 440.332 348.198 441.194 348.47 442.121L350.779 450.082C351.057 451.007 351.154 451.979 351.065 452.943C350.975 453.907 350.701 454.843 350.257 455.697C349.813 456.552 349.21 457.308 348.48 457.922C347.751 458.537 346.91 458.997 346.006 459.276L315.934 468.63C315.257 468.809 314.557 468.883 313.858 468.849ZM341.602 438.877C341.083 438.877 340.566 438.957 340.07 439.116L309.997 448.49C308.67 448.908 307.557 449.848 306.903 451.104C306.249 452.361 306.106 453.832 306.505 455.197L308.833 463.058C309.241 464.42 310.157 465.561 311.382 466.232C312.607 466.903 314.041 467.05 315.371 466.64L345.444 457.266C346.104 457.064 346.719 456.729 347.252 456.282C347.786 455.834 348.228 455.283 348.552 454.659C348.877 454.036 349.078 453.352 349.144 452.649C349.21 451.945 349.139 451.235 348.936 450.559L346.608 442.698C346.283 441.595 345.621 440.628 344.72 439.94C343.819 439.251 342.726 438.879 341.602 438.877Z" fill="#D1D3D4"/>
<path d="M204.356 181.245C204.149 181.246 203.946 181.179 203.779 181.054C203.611 180.928 203.487 180.751 203.425 180.548C203.351 180.295 203.377 180.022 203.497 179.788C203.616 179.554 203.82 179.377 204.065 179.294L256.255 163.034C256.512 162.955 256.79 162.984 257.026 163.115C257.263 163.245 257.439 163.467 257.516 163.731C257.593 163.995 257.565 164.279 257.438 164.522C257.311 164.765 257.094 164.945 256.837 165.025L204.628 181.125L204.356 181.245Z" fill="#D1D3D4"/>
<path d="M263.86 162.696C263.654 162.694 263.453 162.626 263.286 162.501C263.119 162.376 262.994 162.201 262.929 162C262.89 161.873 262.877 161.739 262.889 161.607C262.902 161.475 262.94 161.347 263.001 161.23C263.063 161.113 263.146 161.01 263.247 160.927C263.348 160.844 263.464 160.782 263.589 160.746L270.593 158.576C270.718 158.52 270.854 158.492 270.99 158.493C271.127 158.494 271.262 158.525 271.387 158.584C271.511 158.643 271.622 158.728 271.712 158.833C271.802 158.939 271.869 159.063 271.909 159.198C271.949 159.332 271.961 159.473 271.944 159.613C271.927 159.752 271.881 159.886 271.81 160.006C271.739 160.126 271.643 160.229 271.531 160.308C271.418 160.388 271.29 160.442 271.155 160.467L264.151 162.656C264.058 162.689 263.959 162.702 263.86 162.696Z" fill="#D1D3D4"/>
<path d="M302.373 232.086L191.604 266.609L225.259 380.235L336.028 345.713L302.373 232.086Z" fill="#4285F4"/>
<path d="M225.252 381.241C225.044 381.242 224.842 381.175 224.674 381.05C224.506 380.924 224.382 380.747 224.32 380.544L190.678 266.903C190.639 266.779 190.625 266.648 190.637 266.519C190.648 266.389 190.685 266.263 190.744 266.148C190.804 266.033 190.886 265.931 190.984 265.849C191.083 265.767 191.196 265.706 191.318 265.669L302.081 231.159C302.328 231.084 302.594 231.11 302.823 231.233C303.051 231.356 303.223 231.565 303.304 231.816L336.946 345.437C337.019 345.69 336.993 345.963 336.874 346.197C336.754 346.431 336.55 346.608 336.306 346.691L225.601 381.201C225.49 381.244 225.369 381.258 225.252 381.241ZM192.812 267.281L225.892 379.012L334.812 345.079L301.713 233.348L192.812 267.281Z" fill="#79C8A2"/>
<path d="M336.027 345.693L225.258 380.216L233.814 409.103L344.583 374.581L336.027 345.693Z" fill="white"/>
<path d="M233.788 410.118C233.64 410.107 233.495 410.067 233.362 409.999C233.248 409.938 233.148 409.853 233.068 409.75C232.988 409.648 232.929 409.529 232.896 409.402L224.34 380.524C224.266 380.271 224.292 379.998 224.412 379.764C224.531 379.53 224.735 379.353 224.98 379.27L335.763 344.76C336.007 344.685 336.27 344.712 336.495 344.835C336.721 344.958 336.889 345.167 336.965 345.417L345.522 374.315C345.617 374.557 345.617 374.828 345.522 375.071C345.394 375.3 345.186 375.471 344.939 375.549L234.079 409.999C233.992 410.059 233.892 410.1 233.788 410.118ZM226.455 380.922L234.448 407.889L343.368 373.956L335.375 346.969L226.455 380.922Z" fill="#79C8A2"/>
<path d="M240.463 385.699C240.255 385.7 240.053 385.633 239.885 385.508C239.718 385.382 239.594 385.205 239.531 385.002C239.458 384.749 239.484 384.476 239.603 384.242C239.723 384.008 239.927 383.831 240.172 383.748L325.538 357.159C325.795 357.08 326.073 357.109 326.309 357.239C326.546 357.37 326.722 357.592 326.799 357.856C326.876 358.12 326.848 358.404 326.721 358.647C326.593 358.889 326.377 359.07 326.12 359.149L240.754 385.738L240.463 385.699Z" fill="#D1D3D4"/>
<path d="M243.45 395.809C243.239 395.812 243.034 395.744 242.865 395.614C242.697 395.484 242.575 395.301 242.519 395.092C242.446 394.842 242.472 394.572 242.592 394.341C242.712 394.11 242.916 393.936 243.159 393.858L322.899 369.001C323.156 368.924 323.433 368.956 323.668 369.088C323.902 369.221 324.076 369.443 324.151 369.707C324.225 369.971 324.195 370.255 324.065 370.495C323.936 370.736 323.719 370.914 323.462 370.991L243.722 395.829C243.631 395.841 243.538 395.834 243.45 395.809Z" fill="#D1D3D4"/>
<path d="M236.582 341.018C236.373 341.015 236.17 340.944 236.003 340.816C235.836 340.687 235.712 340.507 235.651 340.302L221.915 293.87C221.818 293.628 221.818 293.356 221.915 293.114C222.046 292.888 222.253 292.719 222.497 292.637L290.693 271.381C290.929 271.282 291.194 271.282 291.43 271.381C291.544 271.442 291.644 271.527 291.724 271.63C291.804 271.733 291.862 271.851 291.896 271.978L305.71 318.45C305.805 318.692 305.805 318.963 305.71 319.206C305.585 319.43 305.385 319.6 305.147 319.683L236.951 340.939L236.582 341.018ZM224.049 294.249L237.242 338.77L303.595 318.111L290.402 273.57L224.049 294.249Z" fill="white"/>
<path d="M236.582 341.018C236.426 341.019 236.272 340.978 236.136 340.899C236.022 340.838 235.921 340.755 235.839 340.654C235.756 340.553 235.694 340.436 235.656 340.31C235.619 340.184 235.605 340.051 235.618 339.92C235.63 339.789 235.668 339.662 235.729 339.546L253.073 306.13C253.191 305.896 253.393 305.717 253.636 305.633C253.879 305.534 254.15 305.534 254.393 305.633L286.929 323.544C287.155 323.671 287.324 323.885 287.396 324.139C287.469 324.393 287.441 324.666 287.317 324.898C287.194 325.13 286.985 325.302 286.738 325.377C286.49 325.452 286.224 325.423 285.998 325.296L254.335 307.882L237.436 340.421C237.363 340.593 237.244 340.741 237.093 340.846C236.942 340.952 236.765 341.012 236.582 341.018Z" fill="white"/>
<path d="M277.985 320.778C277.813 320.782 277.644 320.733 277.5 320.639C277.276 320.509 277.112 320.294 277.043 320.04C276.974 319.787 277.005 319.515 277.131 319.285L285.435 304.299C285.553 304.088 285.742 303.927 285.966 303.847C286.191 303.766 286.436 303.772 286.657 303.861L303.226 311.126C303.453 311.235 303.63 311.431 303.719 311.671C303.809 311.911 303.804 312.178 303.706 312.414C303.608 312.651 303.425 312.84 303.194 312.941C302.964 313.042 302.704 313.048 302.469 312.957L286.696 306.051L278.819 320.281C278.734 320.431 278.613 320.556 278.466 320.643C278.32 320.731 278.154 320.777 277.985 320.778Z" fill="white"/>
<path d="M271.873 303.802C270.368 303.797 268.905 303.297 267.697 302.377C266.488 301.456 265.6 300.163 265.16 298.687C264.891 297.781 264.798 296.83 264.887 295.888C264.977 294.945 265.246 294.03 265.68 293.195C266.115 292.359 266.705 291.62 267.418 291.019C268.131 290.417 268.953 289.966 269.836 289.691C270.72 289.415 271.648 289.321 272.568 289.414C273.488 289.507 274.38 289.785 275.195 290.232C276.01 290.68 276.73 291.288 277.316 292.021C277.901 292.755 278.339 293.6 278.605 294.507C279.143 296.334 278.953 298.304 278.077 299.987C277.2 301.67 275.709 302.927 273.93 303.483C273.264 303.696 272.57 303.803 271.873 303.802ZM271.873 291.383C271.367 291.376 270.863 291.45 270.379 291.602C269.182 292.076 268.203 292.997 267.641 294.181C267.078 295.365 266.973 296.723 267.346 297.983C267.72 299.243 268.544 300.311 269.654 300.973C270.763 301.635 272.076 301.842 273.328 301.553C274.625 301.146 275.713 300.231 276.355 299.005C276.671 298.4 276.866 297.736 276.929 297.053C276.992 296.37 276.923 295.68 276.724 295.025C276.408 293.956 275.766 293.02 274.893 292.354C274.02 291.687 272.961 291.326 271.873 291.323V291.383Z" fill="white"/>
<path d="M421.605 196.166L310.467 230.605L344.04 344.61L455.178 310.171L421.605 196.166Z" fill="#4285F4"/>
<path d="M343.116 344.521C342.959 344.522 342.806 344.481 342.67 344.402C342.554 344.341 342.451 344.256 342.368 344.154C342.285 344.051 342.222 343.933 342.184 343.805L308.542 230.184C308.47 229.933 308.496 229.663 308.616 229.432C308.736 229.201 308.939 229.028 309.183 228.95L419.965 194.42C420.203 194.332 420.464 194.332 420.702 194.42C420.926 194.551 421.093 194.764 421.168 195.017L454.81 308.638C454.883 308.889 454.857 309.159 454.737 309.39C454.617 309.62 454.413 309.794 454.17 309.872L343.407 344.402L343.116 344.521ZM310.677 230.562L343.756 342.332L452.676 308.499L419.616 196.609L310.677 230.562Z" fill="#79C8A2"/>
<path d="M455.251 310.189L344.113 344.629L352.649 373.612L463.786 339.173L455.251 310.189Z" fill="white"/>
<path d="M351.711 373.399C351.548 373.398 351.389 373.357 351.245 373.28C351.021 373.149 350.855 372.935 350.779 372.683L342.223 343.805C342.188 343.679 342.176 343.548 342.19 343.418C342.204 343.288 342.243 343.162 342.304 343.048C342.365 342.933 342.448 342.832 342.547 342.75C342.647 342.668 342.761 342.607 342.883 342.571L453.646 308.061C453.891 307.986 454.154 308.013 454.379 308.136C454.604 308.259 454.773 308.468 454.849 308.717L463.405 337.595C463.458 337.714 463.485 337.843 463.485 337.973C463.485 338.104 463.458 338.233 463.405 338.352C463.35 338.47 463.271 338.575 463.174 338.66C463.077 338.746 462.964 338.81 462.842 338.849L352.06 373.359L351.711 373.399ZM344.358 344.183L352.351 371.17L461.271 337.217L453.277 310.25L344.358 344.183Z" fill="#79C8A2"/>
<path d="M358.326 348.979C358.116 348.976 357.914 348.905 357.746 348.776C357.579 348.648 357.456 348.468 357.394 348.263C357.322 348.01 357.351 347.737 357.475 347.506C357.599 347.274 357.807 347.103 358.054 347.029L443.42 320.44C443.654 320.396 443.896 320.442 444.099 320.569C444.302 320.696 444.453 320.895 444.522 321.128C444.592 321.362 444.575 321.613 444.476 321.835C444.376 322.056 444.201 322.233 443.983 322.33L358.617 348.92C358.524 348.959 358.425 348.979 358.326 348.979Z" fill="#D1D3D4"/>
<path d="M361.411 359.07C361.204 359.068 361.003 359 360.836 358.875C360.669 358.75 360.545 358.574 360.48 358.373C360.441 358.246 360.428 358.113 360.44 357.981C360.452 357.849 360.49 357.72 360.552 357.603C360.613 357.487 360.697 357.384 360.798 357.3C360.899 357.217 361.015 357.156 361.139 357.119L429.84 335.724C430.074 335.681 430.315 335.727 430.519 335.854C430.722 335.981 430.872 336.18 430.942 336.413C431.011 336.646 430.995 336.898 430.895 337.119C430.796 337.341 430.621 337.517 430.403 337.615L361.605 359.03L361.411 359.07Z" fill="#D1D3D4"/>
<path d="M354.466 304.279C354.303 304.282 354.142 304.241 354 304.16C353.889 304.1 353.791 304.018 353.711 303.919C353.631 303.82 353.571 303.706 353.534 303.583L339.779 257.151C339.682 256.909 339.682 256.637 339.779 256.395C339.896 256.16 340.098 255.982 340.341 255.897L408.615 234.662C408.862 234.587 409.128 234.613 409.356 234.736C409.585 234.858 409.757 235.068 409.838 235.319L423.496 281.75C423.593 281.992 423.593 282.264 423.496 282.506C423.436 282.623 423.354 282.725 423.254 282.808C423.154 282.89 423.038 282.95 422.914 282.984L354.718 304.24C354.637 304.269 354.551 304.282 354.466 304.279ZM342.01 257.529L355.203 302.05L421.537 281.372L408.266 236.851L342.01 257.529Z" fill="white"/>
<path d="M354.446 304.279C354.28 304.278 354.117 304.233 353.973 304.149C353.829 304.064 353.708 303.944 353.623 303.798C353.537 303.652 353.489 303.486 353.484 303.316C353.479 303.146 353.516 302.977 353.592 302.826L370.937 269.391C371.063 269.16 371.272 268.989 371.519 268.913C371.635 268.859 371.761 268.832 371.888 268.832C372.015 268.832 372.141 268.859 372.256 268.913L404.793 286.825C404.914 286.881 405.023 286.962 405.112 287.063C405.202 287.164 405.27 287.282 405.313 287.411C405.356 287.54 405.373 287.677 405.362 287.813C405.351 287.949 405.314 288.081 405.251 288.202C405.188 288.322 405.102 288.428 404.998 288.513C404.894 288.597 404.774 288.659 404.645 288.695C404.517 288.73 404.382 288.737 404.251 288.717C404.119 288.697 403.993 288.649 403.881 288.577L372.198 271.162L355.319 303.722C355.239 303.889 355.115 304.031 354.96 304.129C354.806 304.228 354.628 304.28 354.446 304.279Z" fill="white"/>
<path d="M395.79 284.039C395.628 284.04 395.468 283.999 395.325 283.919C395.101 283.79 394.937 283.575 394.868 283.321C394.799 283.067 394.83 282.796 394.956 282.566L403.26 267.56C403.375 267.346 403.565 267.184 403.792 267.106C404.018 267.029 404.265 267.042 404.482 267.142L421.032 274.386C421.154 274.434 421.265 274.506 421.36 274.599C421.454 274.692 421.529 274.803 421.58 274.926C421.631 275.049 421.658 275.182 421.658 275.316C421.658 275.449 421.632 275.582 421.581 275.705C421.53 275.829 421.456 275.94 421.362 276.033C421.268 276.126 421.156 276.199 421.034 276.246C420.913 276.294 420.782 276.316 420.652 276.311C420.521 276.306 420.393 276.274 420.275 276.217L404.521 269.311L396.644 283.541C396.558 283.695 396.433 283.822 396.283 283.909C396.133 283.997 395.963 284.041 395.79 284.039Z" fill="white"/>
<path d="M389.737 267.082C388.233 267.077 386.769 266.578 385.561 265.658C384.353 264.737 383.464 263.444 383.024 261.968C382.482 260.139 382.669 258.163 383.546 256.476C384.423 254.789 385.917 253.529 387.7 252.972C389.483 252.415 391.409 252.607 393.053 253.507C394.698 254.406 395.927 255.939 396.47 257.768C396.739 258.674 396.832 259.625 396.742 260.567C396.653 261.51 396.384 262.425 395.95 263.26C395.515 264.096 394.925 264.835 394.212 265.436C393.499 266.038 392.677 266.489 391.794 266.764C391.126 266.968 390.434 267.075 389.737 267.082ZM389.737 254.644C389.237 254.643 388.739 254.724 388.263 254.882C387.619 255.073 387.019 255.396 386.498 255.83C385.978 256.264 385.549 256.802 385.236 257.41C384.605 258.634 384.472 260.066 384.868 261.39C385.16 262.378 385.731 263.254 386.509 263.909C387.287 264.563 388.237 264.966 389.238 265.066C390.24 265.166 391.248 264.959 392.134 264.471C393.021 263.984 393.746 263.237 394.219 262.326C394.857 261.104 394.997 259.673 394.607 258.345C394.286 257.28 393.643 256.348 392.771 255.682C391.899 255.017 390.844 254.653 389.757 254.644H389.737Z" fill="white"/>
<path d="M538.125 158.609L427.356 193.132L461.011 306.759L571.78 272.236L538.125 158.609Z" fill="#4285F4"/>
<path d="M460.999 307.782C460.836 307.783 460.676 307.742 460.533 307.663C460.42 307.605 460.32 307.525 460.24 307.425C460.16 307.326 460.101 307.21 460.068 307.085L426.406 193.445C426.334 193.191 426.363 192.919 426.487 192.688C426.61 192.456 426.819 192.285 427.066 192.211L537.829 157.701C537.944 157.647 538.07 157.619 538.197 157.619C538.324 157.619 538.45 157.647 538.566 157.701C538.681 157.758 538.783 157.838 538.867 157.937C538.95 158.037 539.013 158.153 539.051 158.278L572.693 271.918C572.766 272.169 572.739 272.439 572.62 272.67C572.5 272.901 572.296 273.074 572.053 273.152L461.27 307.663C461.19 307.723 461.097 307.764 460.999 307.782ZM428.56 193.823L461.542 305.553L570.462 271.719L537.46 159.89L428.56 193.823Z" fill="#79C8A2"/>
<path d="M571.76 272.236L460.991 306.759L469.547 335.646L580.316 301.124L571.76 272.236Z" fill="white"/>
<path d="M469.536 336.66C469.382 336.658 469.23 336.624 469.089 336.56C468.86 336.432 468.686 336.218 468.604 335.963L460.068 307.085C459.995 306.835 460.021 306.565 460.141 306.334C460.261 306.103 460.465 305.93 460.708 305.852L571.471 271.322C571.595 271.282 571.725 271.268 571.853 271.281C571.982 271.293 572.107 271.333 572.221 271.396C572.335 271.459 572.436 271.544 572.517 271.648C572.598 271.751 572.658 271.871 572.693 271.998L581.249 300.876C581.335 301.12 581.335 301.388 581.249 301.632C581.122 301.862 580.914 302.033 580.667 302.11L469.904 336.62C469.787 336.665 469.66 336.678 469.536 336.66ZM462.299 307.464L470.195 334.371L579.096 300.538L571.122 273.551L462.299 307.464Z" fill="#79C8A2"/>
<path d="M476.21 312.24C476.002 312.241 475.8 312.174 475.632 312.049C475.465 311.924 475.341 311.747 475.278 311.544C475.205 311.29 475.231 311.017 475.35 310.783C475.47 310.549 475.674 310.372 475.919 310.29L561.285 283.701C561.409 283.661 561.539 283.647 561.668 283.66C561.796 283.673 561.922 283.712 562.035 283.775C562.149 283.838 562.25 283.923 562.331 284.027C562.412 284.13 562.472 284.25 562.507 284.377C562.543 284.503 562.554 284.634 562.541 284.764C562.527 284.894 562.488 285.02 562.427 285.134C562.366 285.249 562.283 285.35 562.184 285.432C562.084 285.514 561.97 285.575 561.848 285.611L476.481 312.2L476.21 312.24Z" fill="#D1D3D4"/>
<path d="M479.197 322.43C478.987 322.433 478.781 322.365 478.612 322.235C478.444 322.105 478.322 321.922 478.266 321.714C478.193 321.463 478.22 321.193 478.339 320.962C478.459 320.731 478.663 320.558 478.906 320.48L541.34 301.035C541.461 300.993 541.589 300.976 541.717 300.986C541.844 300.997 541.968 301.034 542.081 301.095C542.194 301.157 542.293 301.242 542.372 301.344C542.452 301.447 542.51 301.565 542.543 301.692C542.616 301.943 542.589 302.213 542.47 302.444C542.35 302.675 542.146 302.848 541.903 302.926L479.469 322.39L479.197 322.43Z" fill="#D1D3D4"/>
<path d="M472.329 267.56C472.12 267.557 471.918 267.486 471.75 267.357C471.583 267.228 471.46 267.049 471.398 266.844L457.643 220.412C457.557 220.168 457.557 219.9 457.643 219.656C457.77 219.426 457.978 219.255 458.225 219.178L526.421 197.923C526.668 197.849 526.933 197.879 527.159 198.006C527.384 198.132 527.552 198.346 527.624 198.599L541.379 245.031C541.474 245.274 541.474 245.544 541.379 245.787C541.255 246.012 541.055 246.182 540.817 246.265L472.621 267.52L472.329 267.56ZM459.796 220.79L472.97 265.311L539.323 244.653L526.13 200.112L459.796 220.79Z" fill="white"/>
<path d="M472.33 267.56C472.167 267.558 472.008 267.518 471.864 267.441C471.752 267.378 471.653 267.293 471.572 267.192C471.492 267.09 471.432 266.972 471.396 266.847C471.36 266.721 471.348 266.589 471.362 266.459C471.376 266.328 471.415 266.202 471.476 266.087L488.821 232.672C488.938 232.437 489.14 232.259 489.384 232.174C489.628 232.085 489.896 232.085 490.14 232.174L522.676 250.086C522.903 250.213 523.071 250.426 523.144 250.68C523.216 250.934 523.188 251.207 523.064 251.439C522.941 251.672 522.733 251.844 522.485 251.919C522.238 251.993 521.972 251.964 521.745 251.837L490.082 234.423L473.183 266.963C473.11 267.135 472.991 267.282 472.84 267.388C472.689 267.493 472.512 267.553 472.33 267.56Z" fill="white"/>
<path d="M513.674 247.32C513.503 247.323 513.334 247.275 513.189 247.18C512.966 247.051 512.801 246.835 512.732 246.582C512.663 246.328 512.695 246.057 512.82 245.827L521.124 230.881C521.243 230.669 521.431 230.508 521.656 230.428C521.88 230.348 522.126 230.353 522.347 230.443L538.915 237.707C539.142 237.816 539.319 238.012 539.409 238.252C539.498 238.492 539.493 238.759 539.396 238.996C539.298 239.233 539.114 239.421 538.884 239.522C538.653 239.624 538.393 239.629 538.159 239.538L522.444 232.592L514.508 246.802C514.426 246.956 514.306 247.085 514.159 247.176C514.013 247.267 513.845 247.317 513.674 247.32Z" fill="white"/>
<path d="M507.621 230.343C506.32 230.341 505.046 229.968 503.939 229.267C502.833 228.565 501.938 227.562 501.354 226.37C500.771 225.177 500.522 223.842 500.635 222.513C500.748 221.184 501.219 219.913 501.994 218.842C502.77 217.771 503.821 216.942 505.029 216.447C506.237 215.953 507.555 215.812 508.836 216.041C510.118 216.27 511.312 216.859 512.286 217.743C513.26 218.628 513.976 219.772 514.353 221.049C514.622 221.953 514.715 222.903 514.625 223.844C514.536 224.785 514.266 225.699 513.832 226.532C513.397 227.366 512.807 228.104 512.094 228.703C511.381 229.303 510.56 229.752 509.677 230.025C509.012 230.237 508.318 230.345 507.621 230.343ZM507.621 217.924C507.115 217.917 506.611 217.991 506.127 218.143C505.326 218.391 504.598 218.838 504.006 219.445C503.414 220.051 502.977 220.797 502.733 221.618C502.49 222.439 502.448 223.309 502.611 224.151C502.774 224.992 503.137 225.78 503.668 226.443C504.199 227.106 504.881 227.625 505.654 227.953C506.427 228.281 507.267 228.408 508.099 228.324C508.931 228.239 509.73 227.945 510.425 227.467C511.12 226.99 511.69 226.344 512.083 225.586C512.402 224.983 512.601 224.32 512.667 223.636C512.734 222.953 512.667 222.263 512.471 221.606C512.279 220.951 511.962 220.341 511.539 219.811C511.116 219.282 510.596 218.844 510.007 218.521C509.278 218.125 508.465 217.92 507.64 217.924H507.621Z" fill="white"/>
<path d="M196.285 245.091C202.596 245.091 207.712 239.842 207.712 233.368C207.712 226.894 202.596 221.646 196.285 221.646C189.974 221.646 184.857 226.894 184.857 233.368C184.857 239.842 189.974 245.091 196.285 245.091Z" fill="#D1D3D4"/>
<path d="M215.415 218.601C215.207 218.602 215.005 218.535 214.837 218.41C214.67 218.285 214.546 218.107 214.483 217.904C214.41 217.651 214.436 217.378 214.555 217.144C214.675 216.91 214.879 216.733 215.124 216.65L319.717 184.071C319.962 183.996 320.225 184.023 320.45 184.146C320.675 184.269 320.844 184.478 320.92 184.728C320.993 184.981 320.968 185.254 320.848 185.488C320.729 185.722 320.525 185.899 320.28 185.981L215.686 218.561L215.415 218.601Z" fill="#D1D3D4"/>
<path d="M218.073 227.577C217.815 227.616 217.553 227.549 217.344 227.391C217.135 227.232 216.996 226.995 216.957 226.731C216.919 226.467 216.984 226.198 217.138 225.984C217.293 225.769 217.524 225.626 217.782 225.587L322.375 193.067C322.62 192.992 322.883 193.019 323.108 193.142C323.333 193.265 323.502 193.474 323.578 193.723C323.652 193.977 323.626 194.249 323.506 194.484C323.387 194.718 323.183 194.895 322.938 194.977L218.344 227.537L218.073 227.577Z" fill="#D1D3D4"/>
<path d="M220.731 236.553C220.524 236.554 220.321 236.487 220.154 236.362C219.986 236.236 219.862 236.059 219.8 235.856C219.726 235.603 219.752 235.33 219.872 235.096C219.991 234.862 220.195 234.685 220.44 234.602L315.178 205.008C315.3 204.968 315.429 204.955 315.556 204.968C315.684 204.981 315.807 205.02 315.92 205.083C316.032 205.146 316.131 205.232 316.21 205.336C316.289 205.439 316.347 205.558 316.38 205.685C316.422 205.808 316.438 205.94 316.428 206.071C316.418 206.201 316.382 206.329 316.322 206.444C316.262 206.56 316.179 206.662 316.079 206.743C315.979 206.825 315.864 206.885 315.74 206.918L221.003 236.513C220.916 236.545 220.823 236.559 220.731 236.553Z" fill="#D1D3D4"/>
<path d="M243.178 433.046C242.971 433.047 242.769 432.98 242.601 432.855C242.433 432.729 242.309 432.552 242.247 432.349C242.174 432.096 242.199 431.823 242.319 431.589C242.439 431.355 242.642 431.178 242.887 431.095L382.927 387.47C383.172 387.395 383.435 387.422 383.66 387.545C383.885 387.668 384.054 387.877 384.13 388.127C384.204 388.38 384.178 388.653 384.058 388.887C383.939 389.121 383.735 389.298 383.49 389.381L243.45 433.006C243.363 433.037 243.271 433.051 243.178 433.046Z" fill="#D1D3D4"/>
<path d="M602.707 473.009C602.707 473.009 557.987 359.567 527.954 318.728C523.86 313.156 518.253 311.882 514.081 314.35C509.173 317.255 508.261 328.042 508.261 328.042C508.261 328.042 496.387 319.962 490.373 321.057C484.358 322.151 483.078 331.565 483.078 331.565C483.078 331.565 470.176 326.291 464.453 330.669C458.729 335.048 458.031 343.645 458.031 343.645C458.031 343.645 392.26 282.526 384.926 277.272C377.592 272.018 363.293 279.521 369.405 289.99C373.285 296.498 405.996 334.152 416.628 346.133C427.26 358.114 451.686 390.336 454.053 399.511C456.42 408.685 458.283 419.034 440.201 419.074C422.118 419.114 405.86 421.244 397.517 427.453C389.175 433.662 383.354 443.514 387.176 445.763C390.999 448.012 448.718 450.141 472.252 461.685C495.786 473.228 524.093 513.569 524.093 513.569L602.707 473.009Z" fill="white"/>
<path d="M524.17 514.624C524.019 514.626 523.87 514.59 523.735 514.521C523.6 514.452 523.483 514.351 523.394 514.226C523.103 513.828 494.951 474.004 471.902 462.66C455.857 454.699 423.224 451.216 403.726 449.126C393.191 447.992 388.088 447.415 386.769 446.639C386.261 446.333 385.84 445.897 385.547 445.374C385.255 444.85 385.101 444.257 385.1 443.653C384.887 439.335 390.242 431.712 397.032 426.637C404.618 420.985 419.169 418.099 440.259 418.079C446.719 418.079 451.026 416.666 453.064 413.96C455.663 410.477 454.557 405.043 453.18 399.769C450.891 390.953 427.027 359.289 415.968 346.81C404.909 334.331 372.489 297.055 368.628 290.507C367.352 288.632 366.792 286.342 367.053 284.071C367.314 281.8 368.379 279.707 370.045 278.188C373.711 274.665 380.677 272.993 385.566 276.456C392.376 281.332 447.786 332.699 457.351 341.655C458.087 337.052 460.407 332.872 463.89 329.873C469.031 325.893 479.023 329.037 482.36 330.232C482.942 327.505 484.901 321.057 490.12 320.082C495.339 319.106 504.07 324.261 507.407 326.351C507.873 323.107 509.347 315.922 513.499 313.474C518.369 310.588 524.442 312.459 528.613 318.131C558.375 358.612 603.037 471.516 603.483 472.651C603.578 472.879 603.585 473.135 603.502 473.368C603.419 473.601 603.253 473.793 603.037 473.905L524.5 514.525C524.397 514.579 524.285 514.613 524.17 514.624ZM379.28 276.655C376.363 276.66 373.548 277.757 371.364 279.74C369.984 280.947 369.105 282.649 368.907 284.499C368.709 286.348 369.206 288.205 370.297 289.691C374.022 296.04 406.597 333.476 417.404 345.676C427.337 356.88 452.52 389.659 455.062 399.411C456.556 405.163 457.739 411.133 454.616 415.333C452.152 418.617 447.456 420.209 440.259 420.229C419.596 420.229 405.433 423.015 398.177 428.408C391.406 433.444 386.866 440.509 387.04 443.693C387.023 443.966 387.079 444.238 387.202 444.48C387.325 444.722 387.511 444.925 387.739 445.066C388.748 445.663 396.12 446.46 403.92 447.295C423.534 449.405 456.304 452.948 472.756 461.008C494.815 471.894 520.503 506.982 524.48 512.534L601.465 472.73C597.294 462.202 555.426 357.915 527.177 319.484C523.627 314.648 518.563 313.016 514.586 315.365C510.899 317.534 509.502 325.316 509.25 328.281C509.239 328.454 509.184 328.621 509.09 328.764C508.995 328.908 508.865 329.023 508.713 329.098C508.561 329.173 508.392 329.205 508.224 329.191C508.056 329.177 507.895 329.117 507.756 329.018C507.64 329.018 496.115 321.196 490.586 322.211C485.328 323.166 484.086 331.784 484.067 331.864C484.05 332.015 483.998 332.16 483.918 332.287C483.837 332.415 483.729 332.522 483.601 332.6C483.468 332.664 483.322 332.697 483.175 332.697C483.027 332.697 482.881 332.664 482.748 332.6C482.631 332.6 470.292 327.585 465.054 331.565C459.815 335.545 459.039 343.745 459.02 343.825C459.01 344.011 458.948 344.191 458.842 344.343C458.735 344.495 458.588 344.612 458.418 344.68C458.249 344.747 458.064 344.764 457.886 344.729C457.708 344.694 457.543 344.608 457.409 344.481C456.75 343.864 391.6 283.342 384.402 278.188C382.889 277.148 381.1 276.613 379.28 276.655Z" fill="#79C8A2"/>
<path d="M636.301 550.349C626.27 519.023 602.32 447.594 600.923 448.171C599.526 448.748 503.547 495.578 503.547 495.578L540.129 643.395L567.574 623.739L596.667 597.182L636.301 550.349Z" fill="#79C8A2"/>
<path d="M143.164 445.962C143.164 445.962 160.528 312.081 175.526 297.712C193.336 280.675 209.556 269.092 212.524 278.844C215.493 288.596 218.345 304.817 193.938 323.087L197.488 355.567C197.488 355.567 221.449 372.543 208.974 426.14" fill="white"/>
<path d="M143.164 446.877H143.048C142.814 446.843 142.603 446.715 142.461 446.521C142.319 446.327 142.258 446.083 142.291 445.843C142.99 440.369 159.869 311.464 174.924 297.055C192.133 280.576 203.813 272.993 209.634 274.585C210.547 274.846 211.376 275.353 212.034 276.052C212.693 276.752 213.157 277.62 213.378 278.566C220.13 300.717 207.15 314.23 194.869 323.525L198.323 355.069C201.349 357.438 221.604 375.588 209.828 426.339C209.803 426.456 209.755 426.567 209.687 426.665C209.619 426.763 209.533 426.846 209.434 426.909C209.334 426.972 209.223 427.014 209.108 427.032C208.992 427.05 208.874 427.045 208.76 427.015C208.537 426.954 208.346 426.805 208.229 426.6C208.113 426.395 208.08 426.15 208.14 425.921C220.324 373.538 197.236 356.482 197.003 356.263C196.899 356.192 196.812 356.098 196.748 355.988C196.684 355.878 196.646 355.754 196.635 355.627L193.065 323.146C193.042 322.986 193.065 322.822 193.131 322.674C193.196 322.525 193.301 322.4 193.433 322.311C216.114 305.274 215.105 290.248 211.71 279.043C211.571 278.392 211.263 277.791 210.819 277.304C210.376 276.817 209.812 276.462 209.187 276.277C204.143 274.924 192.424 282.745 176.205 298.329C161.615 312.26 144.289 444.688 144.115 446.022C144.107 446.142 144.077 446.26 144.025 446.368C143.973 446.476 143.901 446.573 143.813 446.652C143.724 446.732 143.622 446.792 143.51 446.831C143.399 446.87 143.281 446.886 143.164 446.877Z" fill="#79C8A2"/>
</svg>
